# xmcd
#
# Track frame offsets:
#	150
#	14015
#	27739
#	40630
#	59623
#	74898
#	89004
#	102789
#	117039
#	136689
#
# Disc length: 2015 seconds
#
# Revision: 0
# Processed by: cddbd v1.5.2PL0 Copyright (c) Steve Scherf et al.
# Submitted via: EasyCDDAExtractor 16.0.6.1
#
DISCID=8f07dd0a
DTITLE=Συλλογικός δίσκος - Ιστορία ρεμπέτικου και λαϊκού 01-3
DYEAR=2007
DGENRE=Ποικίλη
TTITLE0=Μαρίκα η Πολίτισσα - Πριγκηπιώτισσα [Παν. Τούντα]
TTITLE1=Ρούκουνας Κώστας ή Σαμιωτάκης - Αλάνης μάννας γιός [Παν. Τούντα]
TTITLE2=Διαμαντίδης Αντώνης ή Νταλγκάς - Κακούργα πεθερά [Ιάκωβου Μοντανάρη]
TTITLE3=Καλλίνικος Δημήτρης ή Αραπάκης - Ο μεμέτης [Παραδ. Σμύρνης]
TTITLE4=Περπινιάδης Στελλάκης - Λιλή σκανταλιάρα [Παν. Τούντα]
TTITLE5=Μαρσέλος Κώστας ή Νούρος - Χασαπάκι [Κώστα Σκαρβέλη]
TTITLE6=Διαμαντίδης Αντώνης ή Νταλγκάς - Ένας μάγκας χασικλής [Αντ. Διαμαντίδη
TTITLE6=]
TTITLE7=Κασιμάτης Ζαχαρίας - Αθηναίος σεβνταλής [Γιάννη Δραγάτση]
TTITLE8=Διαμαντίδης Αντώνης ή Νταλγκάς - Δερβισάκι [Κώστα Σκαρβέλη]
TTITLE9=Μαρίκα η Πολίτισσα - Τα μαστούρια [Ιάκωβου Μοντανάρη]
EXTD=
EXTT0=
EXTT1=
EXTT2=
EXTT3=
EXTT4=
EXTT5=
EXTT6=
EXTT7=
EXTT8=
EXTT9=
PLAYORDER=
